<?xml version="1.0" encoding="utf-8" ?><svg xmlns="http://www.w3.org/2000/svg" xmlns:xlink="http://www.w3.org/1999/xlink" width="1200" height="1002" viewBox="0 0 1200 1002"><rect width="1200" height="1002" fill="#FFFFFF"/><path fill="#2953BE" d="M620.193 572.188L659.609 572.068C692.162 643.657 724.025 716.355 757.14 787.616C743.051 787.675 728.961 787.658 714.872 787.564C707.625 771.24 700.513 754.203 693.534 737.747L659.473 737.709L585.908 737.733C578.862 754.424 571.725 771.076 564.496 787.688L523.105 787.536L582.672 655.307C594.891 628.117 607.382 598.971 620.193 572.188ZM599.39 706.579C612.522 706.016 627.863 706.38 641.162 706.402C653.601 706.409 667.738 706.104 680.039 706.563L650.056 636.88C648.704 633.727 640.56 614.199 639.434 612.716L599.39 706.579Z"/><path fill="#2953BE" d="M365.966 566.282C398.329 563.773 434.032 572.728 457.253 596.062C459.052 597.869 460.474 599.33 461.9 601.442L436.576 626.178C410.324 599.389 368.969 593.331 336.105 611.369C319.632 620.411 307.477 635.686 302.364 653.769C296.792 673.079 298.472 697.036 308.481 714.683C318.1 731.782 334.212 744.275 353.167 749.332C375.23 755.402 401.287 752.431 421.233 741.093C420.841 725.299 421.058 708.893 421.076 693.05L421.21 686.889L459.442 686.82L459.355 760.076C441.145 776.47 410.17 785.123 386.147 787.271C322.284 792.981 262.868 752.536 258.642 684.787C254.544 619.09 301.104 570.617 365.966 566.282Z"/><path fill="#2953BE" d="M820.885 572.153C834.313 572.253 847.743 572.187 861.169 571.956C861.917 588.929 861.291 610.997 861.288 628.292L861.336 753.621C898.463 753.077 936.781 753.53 974.02 753.526C973.838 760.149 974.54 783.435 973.78 787.743C923.79 786.749 870.83 787.628 820.607 787.631L820.674 642.415L820.601 597.214C820.585 590.636 820.251 578.292 820.885 572.153Z"/><path fill="#2953BE" d="M0 0L106.467 0L106.536 910.093L474.087 910.136L599.603 910.133C622.031 910.131 645.232 910.431 667.615 910.036C667.677 940.07 667.023 972.16 667.702 1002L0 1002L0 0Z"/><path fill="#2953BE" d="M532.11 0L1200 0L1200 395.114C1190.88 395.935 1172.64 395.4 1162.97 395.397L1093.23 395.322L1093.25 91.9309C1069.88 91.552 1045.38 91.8826 1021.94 91.8797L884.382 91.8732L532.119 91.9346C531.619 61.7348 532.089 30.2677 532.11 0Z"/><path fill="#2953BE" d="M1037.71 572.2C1089.96 571.371 1143.04 572.882 1195.36 571.978C1195.54 583.169 1195.37 594.876 1195.36 606.106C1181.79 605.546 1166.14 605.92 1152.44 605.927L1078.02 605.887C1077.8 624.323 1078.06 643.272 1077.98 661.782C1111.54 660.589 1147.88 662.467 1181.98 661.529C1181.84 672.711 1181.83 683.895 1181.93 695.078C1147.97 694.394 1112.13 694.966 1078.02 694.958L1078.13 754.06C1105.95 752.967 1134.87 754.374 1162.81 753.861C1174.61 753.645 1188.32 753.377 1200 754.075L1200 787.416C1195.35 787.958 1186.29 787.679 1181.22 787.666L1148.22 787.603L1037.66 787.586C1037.27 760.443 1037.63 732.383 1037.62 705.179L1037.71 572.2Z"/></svg>